# xmcd
#
# Track frame offsets: 
#        150
#        20780
#        42315
#        78826
#        105745
#        129760
#        153968
#        177472
#        201707
#        223833
#        246989
#        267419
#
# Disc length: 3916 seconds
#
# Revision: 0
# Processed by: cddbd v1.5.2PL0 Copyright (c) Steve Scherf et al.
# Submitted via: ExactAudioCopy v0.99pb5
#
DISCID=af0f4a0c
DTITLE=Various Artist - The best of Tam Doan CD2
DYEAR=1900
DGENRE=
TTITLE0=Cho co ban be thoi vs Duy Truong
TTITLE1=Khi khong
TTITLE2=Chuyen tinh co lai do ben Ha
TTITLE3=Giot buon khong ten
TTITLE4=Phan boi
TTITLE5=Neu anh dung hen vs Duy Linh
TTITLE6=Biet ly
TTITLE7=Yeu lam
TTITLE8=Co le
TTITLE9=Ngay em ra di
TTITLE10=Chi co ban be thoi_Beat
TTITLE11=Giot buon khong ten_Beat
EXTD=
EXTT0=
EXTT1=
EXTT2=
EXTT3=
EXTT4=
EXTT5=
EXTT6=
EXTT7=
EXTT8=
EXTT9=
EXTT10=
EXTT11=
PLAYORDER=
